<svg xmlns="http://www.w3.org/2000/svg" xml:space="preserve" width="16" height="16" data-version="2">
    <path fill="#457b9d" d="m2.37 4.31.01-.17h2.35q2.38 0 2.38 1.86 0 .72-.95 1.57 1.4.34 1.4 2 0 1.3-.65 1.79-.66.48-2.01.48h-.32l-2.21.02.01-.16.57-.08q.11-.01.13-.14V4.53q-.02-.14-.13-.15Zm2.75 3.32H3.83v4.05h1.01q1.97 0 1.97-2.07 0-1.05-.42-1.52-.43-.46-1.27-.46m.05-.16q.41 0 .71.04.48-.76.48-1.44 0-1.76-1.68-1.76h-.85v3.16Z" paint-order="stroke"/>
    <rect width="5.19" height="7.72" x="-2.595" y="-3.86" fill="none" rx="0" ry="0" transform="translate(5.465 8.5)"/>
    <path fill="#457b9d" d="M13.62 4.14q0 .02.01.17l-.69.08v7.25l.8.04-.01.16-2.2.02q0-.1.01-.16l.57-.08q.11-.01.14-.14V8.14H8.49v3.5l.82.04-.01.16-2.21.02.01-.16.57-.08q.11-.01.13-.13V4.52q-.02-.13-.13-.14l-.57-.06-.01-.16 2.21-.02q0 .02.01.17l-.82.08v3.53h3.76V4.53q-.03-.14-.14-.15l-.57-.06q-.01-.07-.01-.16Z" paint-order="stroke"/>
    <rect width="6.65" height="7.72" x="-3.325" y="-3.86" fill="none" rx="0" ry="0" transform="translate(10.915 8.5)"/>
</svg>
